<?xml version="1.0" encoding="UTF-8"?>
<svg width="136px" height="34px" viewBox="0 0 136 34" version="1.1" xmlns="http://www.w3.org/2000/svg" xmlns:xlink="http://www.w3.org/1999/xlink">
    <title>logo-white</title>
    <g id="页面-1" stroke="none" stroke-width="1" fill="none" fill-rule="evenodd">
        <g id="Logo备份" transform="translate(-179.000000, -737.000000)" fill="#FFFFFF" fill-rule="nonzero">
            <g id="logo-white" transform="translate(179.000000, 737.000000)">
                <path d="M10.306287,5.27586207 L10.3073754,7.42817837 C11.8840343,7.67376115 13.2009706,8.2832071 14.2581842,9.2565162 C15.6721713,10.5582839 16.3907076,12.2911565 16.4137931,14.4551339 L11.7216645,14.4551339 C11.698579,13.5083938 11.3984674,12.7391674 10.8213298,12.1474548 C10.2441922,11.5557423 9.48237063,11.259886 8.53586498,11.259886 C7.37004704,11.259886 6.48991222,11.6740848 5.8954605,12.5024824 C5.30100878,13.33088 5.00378292,14.6749129 5.00378292,16.534581 L5.00378292,17.0417632 C5.00378292,18.9239728 5.29812309,20.2764587 5.88680343,21.099221 C6.47548378,21.9219832 7.37004704,22.3333644 8.57049323,22.3333644 C9.49391338,22.3333644 10.2441922,22.0854086 10.8213298,21.5894971 C11.3984674,21.0935856 11.698579,20.4342487 11.7216645,19.6114865 L16.4137931,19.6114865 C16.4022504,20.8512652 16.0559678,21.9867899 15.3749454,23.0180604 C14.6939231,24.0493309 13.7618459,24.8495517 12.5787138,25.4187229 C11.866517,25.7613405 11.1093577,26.0008372 10.3072357,26.1372131 L10.306287,28.137931 L6.35695783,28.137931 L6.35608013,26.0386496 C4.73851251,25.6854678 3.3931835,24.9321958 2.32009312,23.7788337 C0.773364373,22.1164031 0,19.8199947 0,16.8896086 L0,16.5683932 C0,13.7507142 0.767592997,11.5022064 2.30277899,9.82286968 C3.37508282,8.64987881 4.72614524,7.886546 6.35596626,7.53287123 L6.35695783,5.27586207 L10.306287,5.27586207 Z" id="形状结合"></path>
                <path d="M17.5862069,16.5344828 C17.5862069,14.683908 17.9407906,13.0344828 18.6499579,11.5862069 C19.3591253,10.137931 20.3799832,9.01724138 21.7125315,8.22413793 C23.0450799,7.43103448 24.5920942,7.03448276 26.3535744,7.03448276 C28.8585366,7.03448276 30.9031119,7.8045977 32.4873003,9.34482759 C34.0714886,10.8850575 34.9550883,12.9770115 35.1380992,15.6206897 L35.1724138,16.8965517 C35.1724138,19.7586207 34.3774601,22.0545977 32.7875526,23.7844828 C31.1976451,25.5143678 29.0644239,26.3793103 26.387889,26.3793103 C23.7113541,26.3793103 21.5752733,25.5172414 19.9796468,23.7931034 C18.3840202,22.0689655 17.5862069,19.7241379 17.5862069,16.7586207 L17.5862069,16.5344828 Z M22.5446594,16.8965517 C22.5446594,18.6666667 22.8763667,20.0201149 23.5397813,20.9568966 C24.203196,21.8936782 25.1525652,22.362069 26.387889,22.362069 C27.5888982,22.362069 28.5268293,21.8994253 29.2016821,20.9741379 C29.8765349,20.0488506 30.2139613,18.5689655 30.2139613,16.5344828 C30.2139613,14.7988506 29.8765349,13.454023 29.2016821,12.5 C28.5268293,11.545977 27.5774601,11.0689655 26.3535744,11.0689655 C25.141127,11.0689655 24.203196,11.5431034 23.5397813,12.4913793 C22.8763667,13.4396552 22.5446594,14.908046 22.5446594,16.8965517 Z" id="形状"></path>
                <path d="M36.9310345,16.7328916 C36.9310345,13.8734376 37.5679458,11.5960464 38.8417683,9.90071802 C40.1155909,8.20538959 41.8579782,7.35772538 44.0689302,7.35772538 C45.842181,7.35772538 47.3067963,8.02455456 48.4627763,9.35821292 L48.4627763,0 L53.3448276,0 L53.3448276,26.0402447 L48.9509814,26.0402447 L48.7152962,24.090617 C47.5032007,25.6164126 45.9431889,26.3793103 44.0352608,26.3793103 C41.8916475,26.3793103 40.1717065,25.5288206 38.8754377,23.8278411 C37.5791689,22.1268615 36.9310345,19.7618784 36.9310345,16.7328916 Z M41.7962511,17.0889106 C41.7962511,18.8068434 42.0936634,20.1235484 42.6884881,21.0390258 C43.2833127,21.9545031 44.1474919,22.4122418 45.2810256,22.4122418 C46.7849219,22.4122418 47.8455055,21.7736681 48.4627763,20.4965207 L48.4627763,13.2574683 C47.8567286,11.9803209 46.8073681,11.3417472 45.314695,11.3417472 C42.9690657,11.3417472 41.7962511,13.2574683 41.7962511,17.0889106 Z" id="形状"></path>
                <path d="M64.9859892,26.3793103 C62.2392139,26.3793103 60.0031311,25.5402299 58.2777407,23.862069 C56.5523504,22.183908 55.6896552,19.9482759 55.6896552,17.1551724 L55.6896552,16.6724138 C55.6896552,14.7988506 56.053199,13.1235632 56.7802865,11.6465517 C57.5073741,10.1695402 58.5374148,9.0316092 59.8704087,8.23275862 C61.2034026,7.43390805 62.7239389,7.03448276 64.4320177,7.03448276 C66.9941358,7.03448276 69.0109383,7.83908046 70.482425,9.44827586 C71.9539118,11.0574713 72.6896552,13.3390805 72.6896552,16.2931034 L72.6896552,18.3275862 L60.7619566,18.3275862 C60.9235316,19.545977 61.4111419,20.5229885 62.2247876,21.2586207 C63.0384332,21.9942529 64.0684739,22.362069 65.3149098,22.362069 C67.2422689,22.362069 68.7483789,21.6666667 69.8332397,20.2758621 L72.2914882,23.0172414 C71.5413184,24.0747126 70.5257041,24.8994253 69.244645,25.4913793 C67.9635859,26.0833333 66.544034,26.3793103 64.9859892,26.3793103 Z M64.4147061,11.0689655 C63.4221738,11.0689655 62.617184,11.4022989 61.9997366,12.0689655 C61.3822893,12.7356322 60.9870075,13.6896552 60.8138914,14.9310345 L67.7731582,14.9310345 L67.7731582,14.5344828 C67.7500761,13.4310345 67.4500082,12.5775862 66.8729546,11.9741379 C66.2959009,11.3706897 65.4764848,11.0689655 64.4147061,11.0689655 Z" id="形状"></path>
                <path d="M84.8658464,20.8793103 C84.8658464,20.2701149 84.5654312,19.7902299 83.9646009,19.4396552 C83.3637707,19.0890805 82.3995811,18.7758621 81.0720323,18.5 C76.6544992,17.5689655 74.4457327,15.683908 74.4457327,12.8448276 C74.4457327,11.1896552 75.1295347,9.80747126 76.4971389,8.69827586 C77.8647431,7.58908046 79.6529284,7.03448276 81.861695,7.03448276 C84.2192385,7.03448276 86.1047012,7.59195402 87.5180829,8.70689655 C88.9314646,9.82183908 89.6381554,11.2701149 89.6381554,13.0517241 L84.677014,13.0517241 C84.677014,12.3390805 84.4481263,11.75 83.9903508,11.2844828 C83.5325754,10.8189655 82.8173012,10.5862069 81.8445284,10.5862069 C81.0090882,10.5862069 80.3624804,10.7758621 79.9047049,11.1551724 C79.4469295,11.5344828 79.2180417,12.0172414 79.2180417,12.6034483 C79.2180417,13.1551724 79.4784015,13.6005747 79.9991211,13.9396552 C80.5198407,14.2787356 81.3981973,14.5718391 82.634191,14.8189655 C83.8701848,15.066092 84.9116239,15.3448276 85.7585085,15.6551724 C88.3792729,16.6206897 89.6896552,18.2931034 89.6896552,20.6724138 C89.6896552,22.3735632 88.9629366,23.75 87.5094996,24.8017241 C86.0560625,25.8534483 84.1791832,26.3793103 81.8788615,26.3793103 C80.322425,26.3793103 78.9405154,26.1005747 77.7331326,25.5431034 C76.5257499,24.9856322 75.5787269,24.2212644 74.8920637,23.25 C74.2054006,22.2787356 73.862069,21.2298851 73.862069,20.1034483 L78.5657117,20.1034483 C78.6114893,20.9885057 78.9376543,21.6666667 79.5442067,22.137931 C80.1507592,22.6091954 80.9633106,22.8448276 81.981861,22.8448276 C82.9317451,22.8448276 83.6498803,22.6637931 84.1362667,22.3017241 C84.6226532,21.9396552 84.8658464,21.4655172 84.8658464,20.8793103 Z" id="路径"></path>
                <path d="M97.0335249,25.7931034 L92.3113027,25.7931034 L92.3113027,7.32312467 L97.0335249,7.32312467 L97.0335249,25.7931034 Z M92.0344828,2.54346288 C92.0344828,1.80375332 92.2705939,1.19491545 92.7428161,0.716949269 C93.2150383,0.23898309 93.8582375,0 94.6724138,0 C95.4757344,0 96.1162197,0.23898309 96.5938697,0.716949269 C97.0715198,1.19491545 97.3103448,1.80375332 97.3103448,2.54346288 C97.3103448,3.29455259 97.0688059,3.90908054 96.585728,4.38704671 C96.1026501,4.86501289 95.4648787,5.10399598 94.6724138,5.10399598 C93.8799489,5.10399598 93.2421775,4.86501289 92.7590996,4.38704671 C92.2760217,3.90908054 92.0344828,3.29455259 92.0344828,2.54346288 Z" id="形状"></path>
                <path d="M100.241379,16.9554974 C100.241379,14.153367 100.920348,11.8970332 102.278285,10.1864958 C103.636223,8.47595836 105.46686,7.62068966 107.770196,7.62068966 C109.809967,7.62068966 111.397092,8.30715532 112.531571,9.68008666 L112.73784,7.95829572 L117.241379,7.95829572 L117.241379,25.615093 C117.241379,27.213095 116.871814,28.6029067 116.132684,29.7845279 C115.393553,30.9661491 114.353614,31.866432 113.012866,32.4853764 C111.672117,33.1043209 110.102181,33.4137931 108.303058,33.4137931 C106.939391,33.4137931 105.610102,33.1465216 104.315191,32.6119787 C103.020281,32.0774358 102.040503,31.3881567 101.375859,30.5441415 L103.576061,27.5732082 C104.813675,28.934886 106.314854,29.6157249 108.0796,29.6157249 C109.397429,29.6157249 110.423044,29.2696786 111.156445,28.5775862 C111.889846,27.8854938 112.256546,26.9036228 112.256546,25.6319733 L112.256546,24.6529157 C111.110607,25.9245652 109.603698,26.56039 107.735818,26.56039 C105.501238,26.56039 103.69352,25.7023079 102.312663,23.9861437 C100.931807,22.2699795 100.241379,19.993952 100.241379,17.158061 L100.241379,16.9554974 Z M105.209023,17.3099838 C105.209023,18.9642535 105.547075,20.2612234 106.223179,21.2008937 C106.899283,22.1405639 107.827493,22.610399 109.00781,22.610399 C110.520449,22.610399 111.603361,22.053349 112.256546,20.939249 L112.256546,13.258711 C111.591902,12.1446109 110.520449,11.5875609 109.042188,11.5875609 C107.850412,11.5875609 106.913607,12.0658362 106.231774,13.0223867 C105.54994,13.9789372 105.209023,15.4081362 105.209023,17.3099838 Z" id="形状"></path>
                <path d="M124.781732,7.3749296 L124.934246,9.50272232 C126.244739,7.85722928 128.001477,7.03448276 130.20446,7.03448276 C132.147604,7.03448276 133.593665,7.60756827 134.542642,8.75373928 C135.491619,9.8999103 135.977405,11.6134927 136,13.8944865 L136,25.7931034 L131.102599,25.7931034 L131.102599,14.0136429 C131.102599,12.9696059 130.876652,12.2121117 130.424758,11.7411603 C129.972864,11.2702088 129.22159,11.0347331 128.170937,11.0347331 C126.79266,11.0347331 125.758953,11.6248409 125.069815,12.8050566 L125.069815,25.7931034 L120.172414,25.7931034 L120.172414,7.3749296 L124.781732,7.3749296 Z" id="路径"></path>
            </g>
        </g>
    </g>
</svg>