<?xml version="1.0" encoding="UTF-8"?>
<svg width="108px" height="27px" viewBox="0 0 108 27" version="1.1" xmlns="http://www.w3.org/2000/svg" xmlns:xlink="http://www.w3.org/1999/xlink">
    <title>logo-grayed</title>
    <g id="页面-1" stroke="none" stroke-width="1" fill="none" fill-rule="evenodd">
        <g id="Logo备份" transform="translate(-179.000000, -668.000000)" fill="#94A3B8" fill-rule="nonzero">
            <g id="logo-grayed" transform="translate(179.000000, 668.000000)">
                <path d="M8.18440435,4.18965517 L8.18518612,5.89883466 C9.43727539,6.09384787 10.4831052,6.57782394 11.3226757,7.35076287 C12.4455478,8.38451956 13.0161502,9.76062426 13.0344828,11.4790769 L9.30838062,11.4790769 C9.29004801,10.7272539 9.05172414,10.1163977 8.59340899,9.64650826 C8.13509385,9.17661885 7.53011785,8.94167415 6.77848101,8.94167415 C5.85268442,8.94167415 5.15375382,9.27059673 4.68168922,9.9284419 C4.20962462,10.5862871 3.97359232,11.6536073 3.97359232,13.1304026 L3.97359232,13.5331649 C3.97359232,15.0278608 4.20733304,16.1018937 4.67481449,16.7552637 C5.14229594,17.4086338 5.85268442,17.7353188 6.80597992,17.7353188 C7.53928416,17.7353188 8.13509385,17.5384127 8.59340899,17.1446007 C9.05172414,16.7507886 9.29004801,16.2271975 9.30838062,15.5738275 L13.0344828,15.5738275 C13.0253165,16.5583577 12.7503274,17.4600978 12.2095155,18.2790479 C11.6687036,19.0979981 10.9285247,19.7334675 9.98897861,20.1854564 C9.42353573,20.4574749 8.82240305,20.6476395 8.18558058,20.7559503 L8.18440435,22.3448276 L5.0481724,22.3448276 L5.04783194,20.677829 C3.76313409,20.3973939 2.69466574,19.7991814 1.84242689,18.8831915 C0.614142296,17.563026 0,15.7394076 0,13.4123362 L0,13.1572534 C0,10.9196848 0.609559144,9.13410505 1.82867743,7.80051416 C2.68027062,6.86895819 3.75326099,6.26276306 5.04764853,5.98192879 L5.0481724,4.18965517 L8.18440435,4.18965517 Z" id="形状结合"></path>
                <path d="M13.9655172,13.1303245 C13.9655172,11.6607505 14.2470984,10.3509128 14.8102607,9.20081136 C15.373423,8.05070994 16.1841043,7.16075051 17.2423045,6.53093306 C18.3005046,5.90111562 19.529016,5.5862069 20.9278385,5.5862069 C22.9170732,5.5862069 24.5407065,6.19776876 25.7987384,7.42089249 C27.0567704,8.64401623 27.7584525,10.3052738 27.9037847,12.4046653 L27.9310345,13.4178499 C27.9310345,15.6906694 27.2997477,17.5139452 26.0371741,18.8876775 C24.7746005,20.2614097 23.0805719,20.9482759 20.9550883,20.9482759 C18.8296047,20.9482759 17.1333053,20.2636917 15.8661901,18.8945233 C14.5990749,17.525355 13.9655172,15.663286 13.9655172,13.3083164 L13.9655172,13.1303245 Z M17.9031119,13.4178499 C17.9031119,14.8235294 18.1665265,15.8983266 18.6933558,16.6422414 C19.220185,17.3861562 19.9740959,17.7581136 20.9550883,17.7581136 C21.908831,17.7581136 22.6536585,17.3907201 23.1895711,16.6559331 C23.7254836,15.921146 23.9934399,14.7459432 23.9934399,13.1303245 C23.9934399,11.7520284 23.7254836,10.6840771 23.1895711,9.92647059 C22.6536585,9.1688641 21.8997477,8.79006085 20.9278385,8.79006085 C19.9650126,8.79006085 19.220185,9.16658215 18.6933558,9.91962475 C18.1665265,10.6726673 17.9031119,11.8387424 17.9031119,13.4178499 Z" id="形状"></path>
                <path d="M29.3275862,13.2878845 C29.3275862,11.0171417 29.8333687,9.20862512 30.8449337,7.8623349 C31.8564987,6.51604468 33.2401592,5.84289957 34.9959151,5.84289957 C36.4040849,5.84289957 37.5671618,6.37244039 38.4851459,7.43152203 L38.4851459,0 L42.362069,0 L42.362069,20.6790178 L38.8728382,20.6790178 L38.6856764,19.1307841 C37.72313,20.3424453 36.4842971,20.9482759 34.9691777,20.9482759 C33.2668966,20.9482759 31.901061,20.2728869 30.8716711,18.9221091 C29.8422812,17.5713312 29.3275862,15.6932564 29.3275862,13.2878845 Z M33.1911406,13.5706054 C33.1911406,14.9348462 33.427321,15.9804649 33.8996817,16.7074617 C34.3720424,17.4344584 35.0583024,17.7979567 35.9584615,17.7979567 C37.1527321,17.7979567 37.9949602,17.2908541 38.4851459,16.2766488 L38.4851459,10.5279895 C38.0038727,9.51378424 37.170557,9.00668159 35.9851989,9.00668159 C34.1224934,9.00668159 33.1911406,10.5279895 33.1911406,13.5706054 Z" id="形状"></path>
                <path d="M51.6065208,20.9482759 C49.4252581,20.9482759 47.6495453,20.2819473 46.2793823,18.9492901 C44.9092194,17.6166329 44.2241379,15.8412779 44.2241379,13.6232252 L44.2241379,13.239858 C44.2241379,11.7520284 44.5128345,10.4216531 45.0902275,9.24873225 C45.6676206,8.07581136 46.4855941,7.17216024 47.5441481,6.5377789 C48.6027021,5.90339757 49.8101868,5.5862069 51.1666023,5.5862069 C53.2012255,5.5862069 54.8028039,6.22515213 55.9713375,7.5030426 C57.1398711,8.78093306 57.7241379,10.5927992 57.7241379,12.938641 L57.7241379,14.5542596 L48.252142,14.5542596 C48.3804516,15.5218053 48.7676715,16.2976673 49.4138019,16.8818458 C50.0599322,17.4660243 50.8779058,17.7581136 51.8677225,17.7581136 C53.3982724,17.7581136 54.5943009,17.2058824 55.455808,16.1014199 L57.4079465,18.2783976 C56.8122235,19.1181542 56.0057062,19.773073 54.9883946,20.2431542 C53.9710829,20.7132353 52.8437917,20.9482759 51.6065208,20.9482759 Z M51.1528548,8.79006085 C50.3646675,8.79006085 49.7254108,9.05476673 49.235085,9.5841785 C48.7447591,10.1135903 48.4308589,10.8711968 48.2933844,11.856998 L53.8198609,11.856998 L53.8198609,11.5420892 C53.801531,10.6658215 53.5632418,9.98808316 53.1049933,9.50887424 C52.6467449,9.02966531 51.996032,8.79006085 51.1528548,8.79006085 Z" id="形状"></path>
                <path d="M67.3934662,16.5806288 C67.3934662,16.096856 67.1549013,15.7157708 66.6777713,15.4373732 C66.2006414,15.1589757 65.4349615,14.9102434 64.3807315,14.6911765 C60.8726906,13.9518256 59.1186701,12.4548682 59.1186701,10.2003043 C59.1186701,8.88590264 59.6616894,7.788286 60.747728,6.90745436 C61.8337665,6.02662272 63.2537961,5.5862069 65.0078166,5.5862069 C66.8799835,5.5862069 68.3772627,6.02890467 69.4996541,6.9143002 C70.6220454,7.79969574 71.1832411,8.94979716 71.1832411,10.3646045 L67.2435111,10.3646045 C67.2435111,9.79868154 67.0617473,9.33088235 66.6982198,8.9612069 C66.3346922,8.59153144 65.7666804,8.40669371 64.9941843,8.40669371 C64.3307465,8.40669371 63.8172638,8.55730223 63.4537363,8.85851927 C63.0902087,9.15973631 62.9084449,9.54310345 62.9084449,10.0086207 C62.9084449,10.4467546 63.1152012,10.8004564 63.5287138,11.0697262 C63.9422264,11.3389959 64.6397449,11.5717546 65.6212694,11.768002 C66.6027938,11.9642495 67.429819,12.1855984 68.102345,12.4320487 C70.1835403,13.198783 71.2241379,14.5268763 71.2241379,16.4163286 C71.2241379,17.7672414 70.6470379,18.8602941 69.4928379,19.6954868 C68.3386379,20.5306795 66.8481749,20.9482759 65.0214489,20.9482759 C63.7854552,20.9482759 62.6880563,20.726927 61.7292524,20.2842292 C60.7704484,19.8415314 60.0184008,19.2345335 59.4731094,18.4632353 C58.9278181,17.6919371 58.6551724,16.8590264 58.6551724,15.964503 L62.3904181,15.964503 C62.4267709,16.6673428 62.6857843,17.2058824 63.1674583,17.5801217 C63.6491323,17.9543611 64.2943937,18.1414807 65.1032426,18.1414807 C65.8575623,18.1414807 66.4278461,17.9977181 66.8140942,17.7101927 C67.2003422,17.4226673 67.3934662,17.046146 67.3934662,16.5806288 Z" id="路径"></path>
                <path d="M77.0560345,20.4827586 L73.3060345,20.4827586 L73.3060345,5.81542253 L77.0560345,5.81542253 L77.0560345,20.4827586 Z M73.0862069,2.01980876 C73.0862069,1.43239234 73.2737069,0.948903444 73.6487069,0.569342066 C74.0237069,0.189780689 74.5344828,0 75.1810345,0 C75.8189655,0 76.3275862,0.189780689 76.7068966,0.569342066 C77.0862069,0.948903444 77.2758621,1.43239234 77.2758621,2.01980876 C77.2758621,2.61626235 77.0840517,3.10426984 76.700431,3.48383121 C76.3168103,3.86339259 75.8103448,4.05317328 75.1810345,4.05317328 C74.5517241,4.05317328 74.0452586,3.86339259 73.6616379,3.48383121 C73.2780172,3.10426984 73.0862069,2.61626235 73.0862069,2.01980876 Z" id="形状"></path>
                <path d="M79.6034483,13.4646597 C79.6034483,11.2394385 80.1426293,9.44764398 81.2209912,8.08927604 C82.2993532,6.73090811 83.7530944,6.05172414 85.5822147,6.05172414 C87.2020327,6.05172414 88.4623967,6.59685864 89.3633067,7.68712764 L89.5271085,6.31982307 L93.1034483,6.31982307 L93.1034483,20.3413974 C93.1034483,21.610399 92.80997,22.7140729 92.2230135,23.6524192 C91.636057,24.5907655 90.8102228,25.305696 89.745511,25.7972107 C88.6807991,26.2887254 87.4340853,26.5344828 86.0053694,26.5344828 C84.9224574,26.5344828 83.8668456,26.3222378 82.8385342,25.8977478 C81.8102228,25.4732578 81.0321642,24.9258891 80.5043583,24.2556418 L82.2515777,21.8963712 C83.2343886,22.9777036 84.4265019,23.5183697 85.8279174,23.5183697 C86.8744291,23.5183697 87.6888881,23.2435683 88.2712946,22.6939655 C88.8537011,22.1443627 89.1449043,21.3646416 89.1449043,20.3548023 L89.1449043,19.5773154 C88.2348942,20.5871547 87.0382309,21.0920744 85.5549144,21.0920744 C83.7803947,21.0920744 82.3448537,20.4106563 81.2482916,19.04782 C80.1517294,17.6849838 79.6034483,15.8775501 79.6034483,13.625519 L79.6034483,13.4646597 Z M83.5483421,13.7461636 C83.5483421,15.0598483 83.8167951,16.0897951 84.3537011,16.8360038 C84.890607,17.5822125 85.6277152,17.9553168 86.5650256,17.9553168 C87.766239,17.9553168 88.6261985,17.5129536 89.1449043,16.6282271 L89.1449043,10.5289763 C88.6170984,9.64424986 87.766239,9.20188662 86.5923259,9.20188662 C85.6459154,9.20188662 84.9019821,9.58169345 84.3605261,10.3413071 C83.8190701,11.1009207 83.5483421,12.2358729 83.5483421,13.7461636 Z" id="形状"></path>
                <path d="M99.0913756,5.85656174 L99.2124898,7.54627949 C100.253175,6.23956443 101.648232,5.5862069 103.397659,5.5862069 C104.940744,5.5862069 106.089087,6.04130421 106.842686,6.95149884 C107.596286,7.86169347 107.982057,9.2224795 108,11.0338569 L108,20.4827586 L104.110888,20.4827586 L104.110888,11.1284811 C104.110888,10.299393 103.931459,9.69785343 103.572602,9.32386257 C103.213745,8.94987171 102.617145,8.76287628 101.782803,8.76287628 C100.688289,8.76287628 99.8674038,9.23149133 99.3201469,10.1687214 L99.3201469,20.4827586 L95.4310345,20.4827586 L95.4310345,5.85656174 L99.0913756,5.85656174 Z" id="路径"></path>
            </g>
        </g>
    </g>
</svg>