<?xml version="1.0" encoding="UTF-8"?>
<svg width="490px" height="122px" viewBox="0 0 490 122" version="1.1" xmlns="http://www.w3.org/2000/svg" xmlns:xlink="http://www.w3.org/1999/xlink">
    <title>codesign</title>
    <g id="页面-1" stroke="none" stroke-width="1" fill="none" fill-rule="evenodd">
        <g id="Logo备份" transform="translate(-179.000000, -222.000000)" fill-rule="nonzero">
            <g id="codesign" transform="translate(179.465183, 222.725000)">
                <path d="M36.5348171,19.275 L36.535241,27.0883668 C42.1258706,27.9795885 46.7954305,30.1923448 50.5439209,33.7266357 C55.5563721,38.4526611 58.1035156,44.7437988 58.1853516,52.6000488 L41.5521973,52.6000488 C41.4703613,49.1629395 40.4064941,46.3702881 38.3605957,44.2220947 C36.3146973,42.0739014 33.6141113,40.9998047 30.2588379,40.9998047 C26.126123,40.9998047 23.0061279,42.50354 20.8988525,45.5110107 C18.7915771,48.5184814 17.7379395,53.3979492 17.7379395,60.1494141 L17.7379395,61.9907227 C17.7379395,68.8240234 18.7813477,73.7341797 20.8681641,76.7211914 C22.9549805,79.7082031 26.126123,81.201709 30.3815918,81.201709 C33.6550293,81.201709 36.3146973,80.3015137 38.3605957,78.501123 C40.4064941,76.7007324 41.4703613,74.3070313 41.5521973,71.3200195 L58.1853516,71.3200195 C58.1444336,75.8209961 56.9168945,79.9434814 54.5027344,83.6874756 C52.0885742,87.4314697 48.7844482,90.3366455 44.5903564,92.4030029 C42.0648532,93.6472753 39.3798566,94.5169237 36.5353667,95.0119483 L36.5348171,102.275 L22.5348171,102.275 L22.5340896,94.6541598 C16.7989025,93.3721695 12.0290433,90.6372624 8.22451172,86.4494385 C2.74150391,80.4140381 -5.68434189e-14,72.077002 -5.68434189e-14,61.4383301 L-5.68434189e-14,60.272168 C-5.68434189e-14,50.0426758 2.72104492,41.879541 8.16313477,35.7827637 C11.9648908,31.5236535 16.7551006,28.7522161 22.533764,27.4684515 L22.5348171,19.275 L36.5348171,19.275 Z" id="形状结合" fill="#A259FF"></path>
                <path d="M63.2588813,60.4562988 C63.2588813,53.8685059 64.5273383,47.9967773 67.0642524,42.8411133 C69.6011664,37.6854492 73.2530952,33.6959473 78.0200385,30.8726074 C82.7869819,28.0492676 88.3211371,26.6375977 94.6225043,26.6375977 C103.583539,26.6375977 110.897626,29.3791016 116.564765,34.8621094 C122.231904,40.3451172 125.392817,47.7921875 126.047504,57.2033203 L126.170258,61.7452148 C126.170258,71.9337891 123.326459,80.1071533 117.638862,86.2653076 C111.951264,92.4234619 104.320063,95.5025391 94.7452582,95.5025391 C85.1704536,95.5025391 77.5290229,92.4336914 71.8209662,86.2959961 C66.1129096,80.1583008 63.2588813,71.8110352 63.2588813,61.2541992 L63.2588813,60.4562988 Z M80.9968207,61.7452148 C80.9968207,68.046582 82.1834418,72.8646729 84.556684,76.1994873 C86.9299262,79.5343018 90.3261176,81.201709 94.7452582,81.201709 C99.041645,81.201709 102.396918,79.5547607 104.811079,76.2608643 C107.225239,72.9669678 108.432319,67.6987793 108.432319,60.4562988 C108.432319,54.2776855 107.225239,49.4902832 104.811079,46.0940918 C102.396918,42.6979004 99.000727,40.9998047 94.6225043,40.9998047 C90.2851996,40.9998047 86.9299262,42.6876709 84.556684,46.0634033 C82.1834418,49.4391357 80.9968207,54.6664063 80.9968207,61.7452148 Z" id="形状" fill="#A259FF"></path>
                <path d="M132.041688,60.5790527 C132.041688,50.2268066 134.363783,41.9818359 139.007973,35.8441406 C143.652162,29.7064453 150.004677,26.6375977 158.065516,26.6375977 C164.530556,26.6375977 169.87035,29.0517578 174.084901,33.8800781 L174.084901,0 L191.884218,0 L191.884218,94.275 L175.864833,94.275 L175.005556,87.2166504 C170.586415,92.7405762 164.898817,95.5025391 157.942763,95.5025391 C150.127431,95.5025391 143.856752,92.4234619 139.130726,86.2653076 C134.404701,80.1071533 132.041688,71.5450684 132.041688,60.5790527 Z M149.779628,61.8679687 C149.779628,68.0875 150.863954,72.8544434 153.032606,76.1687988 C155.201259,79.4831543 158.351942,81.140332 162.484657,81.140332 C167.967665,81.140332 171.834413,78.8284668 174.084901,74.2047363 L174.084901,47.9967773 C171.875331,43.3730469 168.049501,41.0611816 162.607411,41.0611816 C154.055556,41.0611816 149.779628,47.9967773 149.779628,61.8679687 Z" id="形状" fill="#334155"></path>
                <path d="M233.906673,95.5025391 C224.168197,95.5025391 216.24034,92.5155273 210.123104,86.5415039 C204.005867,80.5674805 200.947249,72.6089355 200.947249,62.6658691 L200.947249,60.9473145 C200.947249,54.2776855 202.236165,48.3138916 204.813997,43.0559326 C207.391829,37.7979736 211.043758,33.7470947 215.769784,30.9032959 C220.495809,28.0594971 225.886751,26.6375977 231.942611,26.6375977 C241.0264,26.6375977 248.176815,29.5018555 253.393856,35.2303711 C258.610897,40.9588867 261.219417,49.0811035 261.219417,59.5970215 L261.219417,66.839502 L218.930697,66.839502 C219.503548,71.1768066 221.232332,74.654834 224.117049,77.273584 C227.001766,79.892334 230.653695,81.201709 235.072835,81.201709 C241.906136,81.201709 247.245931,78.7261719 251.09222,73.7750977 L259.807747,83.5340332 C257.148079,87.2984863 253.547298,90.2343506 249.005404,92.341626 C244.463509,94.4489014 239.430599,95.5025391 233.906673,95.5025391 Z M231.881234,40.9998047 C228.362288,40.9998047 225.50826,42.1864258 223.319149,44.559668 C221.130037,46.9329102 219.728597,50.3291016 219.114827,54.7482422 L243.788363,54.7482422 L243.788363,53.3365723 C243.706527,49.4084473 242.642659,46.3702881 240.596761,44.2220947 C238.550863,42.0739014 235.645687,40.9998047 231.881234,40.9998047 Z" id="形状" fill="#334155"></path>
                <path d="M304.960427,75.923291 C304.960427,73.7546387 303.886331,72.0463135 301.738137,70.7983154 C299.589944,69.5503174 296.142605,68.4353027 291.396121,67.4532715 C275.601785,64.138916 267.704617,57.4283691 267.704617,47.3216309 C267.704617,41.4294434 270.149466,36.5090576 275.039163,32.5604736 C279.92886,28.6118896 286.322293,26.6375977 294.219461,26.6375977 C302.648562,26.6375977 309.389798,28.6221191 314.443167,32.5911621 C319.496536,36.5602051 322.02322,41.7158691 322.02322,48.0581543 L304.285281,48.0581543 C304.285281,45.5212402 303.466922,43.4241943 301.830203,41.7670166 C300.193484,40.1098389 297.636111,39.28125 294.158084,39.28125 C291.171072,39.28125 288.859207,39.9563965 287.222488,41.3066895 C285.585769,42.6569824 284.76741,44.3755371 284.76741,46.4623535 C284.76741,48.426416 285.698294,50.0119873 287.560061,51.2190674 C289.421829,52.4261475 292.562283,53.4695557 296.981424,54.349292 C301.400564,55.2290283 305.124099,56.2212891 308.152029,57.3260742 C317.522244,60.7631836 322.207351,66.716748 322.207351,75.1867676 C322.207351,81.242627 319.60906,86.1425537 314.412478,89.8865479 C309.215896,93.630542 302.505349,95.5025391 294.280838,95.5025391 C288.715994,95.5025391 283.775149,94.5102783 279.458303,92.5257568 C275.141458,90.5412354 271.755496,87.8201904 269.300418,84.3626221 C266.84534,80.9050537 265.617801,77.1712891 265.617801,73.1613281 L282.435086,73.1613281 C282.598758,76.3120117 283.76492,78.7261719 285.933572,80.4038086 C288.102224,82.0814453 291.0074,82.9202637 294.649099,82.9202637 C298.045291,82.9202637 300.612893,82.2758057 302.351907,80.9868896 C304.090921,79.6979736 304.960427,78.0101074 304.960427,75.923291 Z" id="路径" fill="#334155"></path>
                <path d="M350.051731,94.275 L332.252414,94.275 L332.252414,27.8651367 L350.051731,27.8651367 L350.051731,94.275 Z M331.209006,10.6795898 C331.209006,8.01992187 332.098972,5.83081055 333.878904,4.11225586 C335.658835,2.39370117 338.083225,1.53442383 341.152072,1.53442383 C344.180002,1.53442383 346.594162,2.39370117 348.394553,4.11225586 C350.194944,5.83081055 351.095139,8.01992187 351.095139,10.6795898 C351.095139,13.3801758 350.184714,15.5897461 348.363864,17.3083008 C346.543015,19.0268555 344.139084,19.8861328 341.152072,19.8861328 C338.165061,19.8861328 335.76113,19.0268555 333.94028,17.3083008 C332.119431,15.5897461 331.209006,13.3801758 331.209006,10.6795898 Z" id="形状" fill="#334155"></path>
                <path d="M359.789909,60.5790527 C359.789909,50.3904785 362.214298,42.1864258 367.063078,35.9668945 C371.911857,29.7473633 378.448503,26.6375977 386.673014,26.6375977 C393.956413,26.6375977 399.623551,29.1335938 403.67443,34.1255859 L404.410954,27.8651367 L420.491715,27.8651367 L420.491715,92.0654297 C420.491715,97.8757813 419.172111,102.92915 416.532902,107.225537 C413.893693,111.521924 410.180387,114.795361 405.392985,117.04585 C400.605583,119.296338 394.999821,120.421582 388.5757,120.421582 C383.706462,120.421582 378.959977,119.44978 374.336247,117.506177 C369.712516,115.562573 366.21403,113.056348 363.840788,109.9875 L371.697038,99.1851563 C376.116178,104.13623 381.476432,106.611768 387.777799,106.611768 C392.483366,106.611768 396.145524,105.35354 398.764274,102.837085 C401.383024,100.32063 402.692399,96.7505371 402.692399,92.1268066 L402.692399,88.5669434 C398.600602,93.1906738 393.219889,95.5025391 386.55026,95.5025391 C378.571256,95.5025391 372.116447,92.3825439 367.185832,86.1425537 C362.255216,79.9025635 359.789909,71.6269043 359.789909,61.3155762 L359.789909,60.5790527 Z M377.527848,61.8679688 C377.527848,67.8829102 378.734928,72.5987061 381.149089,76.0153564 C383.563249,79.4320068 386.877604,81.140332 391.092155,81.140332 C396.493327,81.140332 400.360075,79.1148926 402.692399,75.0640137 L402.692399,47.1375 C400.319157,43.0866211 396.493327,41.0611816 391.214909,41.0611816 C386.95944,41.0611816 383.614396,42.8001953 381.179777,46.2782227 C378.745158,49.75625 377.527848,54.952832 377.527848,61.8679688 Z" id="形状" fill="#334155"></path>
                <path d="M448.151964,27.8651367 L448.704357,35.5372559 C453.450841,29.6041504 459.813585,26.6375977 467.792589,26.6375977 C474.83048,26.6375977 480.06798,28.7039551 483.505089,32.8366699 C486.942198,36.9693848 488.701671,43.147998 488.783507,51.3725098 L488.783507,94.275 L471.045567,94.275 L471.045567,51.8021484 C471.045567,48.0376953 470.227208,45.3064209 468.590489,43.6083252 C466.953771,41.9102295 464.232726,41.0611816 460.427355,41.0611816 C455.435362,41.0611816 451.691368,43.188916 449.195372,47.4443848 L449.195372,94.275 L431.457433,94.275 L431.457433,27.8651367 L448.151964,27.8651367 Z" id="路径" fill="#334155"></path>
            </g>
        </g>
    </g>
</svg>